<svg width="17" height="28" viewBox="0 0 17 28" fill="none" xmlns="http://www.w3.org/2000/svg">
<path d="M15.4273 0.586099C15.8026 0.96149 16.0134 1.47056 16.0134 2.00136C16.0134 2.53216 15.8026 3.04124 15.4273 3.41663L4.83188 14.0121L15.4273 24.6075C15.792 24.9851 15.9938 25.4907 15.9892 26.0156C15.9846 26.5405 15.7741 27.0425 15.403 27.4137C15.0318 27.7848 14.5297 27.9954 14.0049 27.9999C13.48 28.0045 12.9744 27.8027 12.5968 27.4381L0.586094 15.4273C0.210817 15.052 -2.54276e-06 14.5429 -2.44995e-06 14.0121C-2.35714e-06 13.4813 0.210817 12.9722 0.586094 12.5968L12.5968 0.586099C12.9722 0.210822 13.4813 2.35714e-06 14.0121 2.44995e-06C14.5429 2.54276e-06 15.052 0.210822 15.4273 0.586099Z" fill="#9D9E9E"/>
</svg>
