<svg width="17" height="28" viewBox="0 0 17 28" fill="none" xmlns="http://www.w3.org/2000/svg">
<path d="M0.599569 27.4139C0.224292 27.0385 0.0134715 26.5294 0.0134714 25.9986C0.0134714 25.4678 0.224292 24.9588 0.599569 24.5834L11.195 13.9879L0.599567 3.39246C0.234925 3.01492 0.0331561 2.50926 0.0377175 1.9844C0.0422779 1.45954 0.252803 0.957462 0.62395 0.586313C0.995099 0.215165 1.49717 0.00463803 2.02203 7.75183e-05C2.5469 -0.004483 3.05255 0.197286 3.43009 0.561927L15.4408 12.5727C15.8161 12.948 16.0269 13.4571 16.0269 13.9879C16.0269 14.5187 15.8161 15.0278 15.4408 15.4032L3.4301 27.4139C3.0547 27.7892 2.54563 28 2.01483 28C1.48403 28 0.974959 27.7892 0.599569 27.4139Z" fill="#9D9E9E"/>
</svg>
