<svg width="22" height="22" viewBox="0 0 22 22" fill="none" xmlns="http://www.w3.org/2000/svg">
<path fill-rule="evenodd" clip-rule="evenodd" d="M10.8507 0C16.8428 0 21.7013 4.85851 21.7013 10.8507C21.7013 16.8428 16.8428 21.7013 10.8507 21.7013C4.85851 21.7013 0 16.8428 0 10.8507C0 4.85851 4.85851 0 10.8507 0ZM10.8507 1.81384C15.8387 1.81384 19.8875 5.8626 19.8875 10.8507C19.8875 15.8387 15.8387 19.8875 10.8507 19.8875C5.8626 19.8875 1.81384 15.8387 1.81384 10.8507C1.81384 5.8626 5.8626 1.81384 10.8507 1.81384Z" fill="#7533FF"/>
<path fill-rule="evenodd" clip-rule="evenodd" d="M11.3256 17.415V11.6819H13.2366L13.6037 9.30666H11.3256V7.76273C11.3256 7.11493 11.6495 6.47793 12.6644 6.47793H13.7009V4.45895C13.7009 4.45895 12.7615 4.297 11.8654 4.297C9.9868 4.297 8.76677 5.43065 8.76677 7.49282V9.29586H6.68301V11.6711H8.76677V17.4042H11.3364L11.3256 17.415Z" fill="#7533FF"/>
</svg>
