<svg width="23" height="22" viewBox="0 0 23 22" fill="none" xmlns="http://www.w3.org/2000/svg">
<path fill-rule="evenodd" clip-rule="evenodd" d="M14.1183 17.3368H9.02773C6.85734 17.3368 5.10788 15.5873 5.10788 13.4169V8.32635C5.10788 6.15596 6.85734 4.40649 9.02773 4.40649H14.1183C16.2887 4.40649 18.0381 6.15596 18.0381 8.32635V13.4169C18.0381 15.5873 16.2887 17.3368 14.1183 17.3368ZM9.02773 5.74819C7.62027 5.74819 6.48904 6.87942 6.48904 8.28689V13.3774C6.48904 14.7849 7.62027 15.9161 9.02773 15.9161H14.1183C15.5257 15.9161 16.657 14.7849 16.657 13.3774V8.28689C16.657 6.87942 15.5257 5.74819 14.1183 5.74819H9.02773ZM14.9601 6.68211C15.4074 6.68211 15.7888 7.06358 15.7888 7.51081C15.7888 7.95804 15.4074 8.3395 14.9601 8.3395C14.5129 8.3395 14.1314 7.95804 14.1314 7.51081C14.1314 7.06358 14.5129 6.68211 14.9601 6.68211ZM11.619 7.6555C13.408 7.6555 14.8549 9.10243 14.8549 10.8914C14.8549 12.6803 13.408 14.1272 11.619 14.1272C9.83012 14.1272 8.38319 12.6803 8.38319 10.8914C8.38319 9.10243 9.83012 7.6555 11.619 7.6555ZM11.619 12.8118C12.6977 12.8118 13.5658 11.9437 13.5658 10.865C13.5658 9.78643 12.6977 8.91827 11.619 8.91827C10.5404 8.91827 9.67227 9.78643 9.67227 10.865C9.67227 11.9437 10.5404 12.8118 11.619 12.8118Z" fill="#7533FF"/>
<path fill-rule="evenodd" clip-rule="evenodd" d="M11.5665 0C17.5646 0 22.4316 4.86693 22.4316 10.8651C22.4316 16.8633 17.5646 21.7302 11.5665 21.7302C5.56829 21.7302 0.701355 16.8633 0.701355 10.8651C0.701355 4.86693 5.56829 0 11.5665 0ZM11.5665 1.81523C16.5649 1.81523 20.6295 5.87978 20.6295 10.8783C20.6295 15.8767 16.5649 19.9413 11.5665 19.9413C6.56798 19.9413 2.50344 15.8767 2.50344 10.8783C2.50344 5.87978 6.56798 1.81523 11.5665 1.81523Z" fill="#7533FF"/>
</svg>
