<svg width="22" height="22" viewBox="0 0 22 22" fill="none" xmlns="http://www.w3.org/2000/svg">
<path fill-rule="evenodd" clip-rule="evenodd" d="M14.8214 13.2769V13.4291V15.104C14.8214 15.8652 14.2124 16.4743 13.4511 16.4743H8.54834C7.78704 16.4743 7.17801 15.8652 7.17801 15.104V13.4291V13.2769V6.57748C7.17801 5.81619 7.78704 5.20715 8.54834 5.20715H13.4511C14.2124 5.20715 14.8214 5.81619 14.8214 6.57748V13.2769ZM11.5935 14.099H10.3754C10.01 14.099 9.7055 14.4036 9.7055 14.769C9.7055 15.1344 10.01 15.4389 10.3754 15.4389H11.5935C11.9589 15.4389 12.2634 15.1344 12.2634 14.769C12.2634 14.4036 11.9589 14.099 11.5935 14.099Z" fill="#7533FF"/>
<path fill-rule="evenodd" clip-rule="evenodd" d="M10.9844 0C16.9834 0 21.8252 4.87227 21.8252 10.8408C21.8252 16.8398 16.953 21.6816 10.9844 21.6816C4.98544 21.6816 0.143616 16.8093 0.143616 10.8408C0.143616 4.84182 5.01589 0 10.9844 0ZM10.9844 1.8271C15.9785 1.8271 20.0286 5.87718 20.0286 10.8713C20.0286 15.8653 15.9785 19.9154 10.9844 19.9154C5.99034 19.9154 1.94027 15.8653 1.94027 10.8713C1.94027 5.87718 5.99034 1.8271 10.9844 1.8271Z" fill="#7533FF"/>
</svg>
