<svg width="23" height="22" viewBox="0 0 23 22" fill="none" xmlns="http://www.w3.org/2000/svg">
<path fill-rule="evenodd" clip-rule="evenodd" d="M16.7302 7.15968L14.9257 15.6582C14.7802 16.2694 14.431 16.415 13.9362 16.1239L11.2004 14.0866L9.86154 15.3672C9.80333 15.4545 9.71602 15.5127 9.6287 15.5709C9.54139 15.6291 9.42497 15.6291 9.30855 15.6291L9.51228 12.8351L14.6056 8.23655C14.8384 8.03282 14.5474 7.9164 14.2563 8.12013L7.96974 12.0784L5.26301 11.2343C4.68091 11.0597 4.65181 10.6522 5.37943 10.3612L15.9735 6.28654C16.4683 6.11191 16.9049 6.40296 16.7302 7.15968Z" fill="#7533FF"/>
<path fill-rule="evenodd" clip-rule="evenodd" d="M11.2875 0C17.2831 0 22.1436 4.86047 22.1436 10.856C22.1436 16.8516 17.2831 21.7121 11.2875 21.7121C5.29199 21.7121 0.431519 16.8516 0.431519 10.856C0.431519 4.86047 5.29199 0 11.2875 0ZM11.2875 1.80449C16.2935 1.80449 20.3391 5.85003 20.3391 10.856C20.3391 15.862 16.2935 19.9076 11.2875 19.9076C6.28155 19.9076 2.23601 15.862 2.23601 10.856C2.23601 5.85003 6.28155 1.80449 11.2875 1.80449Z" fill="#7533FF"/>
</svg>
