<svg width="34" height="33" viewBox="0 0 34 33" fill="none" xmlns="http://www.w3.org/2000/svg">
<path d="M32.9345 32.281C32.4913 32.7225 31.8901 32.9706 31.2634 32.9706C30.6366 32.9706 30.0355 32.7225 29.5922 32.281L17.081 19.8154L4.56974 32.281C4.35169 32.506 4.09086 32.6854 3.80248 32.8088C3.51409 32.9322 3.20392 32.9972 2.89007 32.9999C2.57622 33.0026 2.26496 32.943 1.97447 32.8246C1.68398 32.7062 1.42006 32.5313 1.19812 32.3102C0.976183 32.0891 0.800667 31.8261 0.681816 31.5367C0.562965 31.2473 0.503159 30.9371 0.505886 30.6244C0.508613 30.3117 0.573823 30.0027 0.697704 29.7153C0.821585 29.428 1.00166 29.1681 1.22742 28.9509L15.4098 14.8202C15.8531 14.3787 16.4542 14.1307 17.081 14.1307C17.7077 14.1307 18.3089 14.3787 18.7521 14.8202L32.9345 28.9509C33.3776 29.3925 33.6266 29.9915 33.6266 30.6159C33.6266 31.2404 33.3776 31.8394 32.9345 32.281ZM32.9345 18.1503C32.4913 18.5919 31.8901 18.8399 31.2634 18.8399C30.6366 18.8399 30.0355 18.5919 29.5922 18.1503L17.081 5.68473L4.56974 18.1503C4.12393 18.5793 3.52685 18.8167 2.90708 18.8114C2.28732 18.806 1.69447 18.5583 1.25621 18.1217C0.817958 17.685 0.569364 17.0943 0.563979 16.4768C0.558593 15.8593 0.796843 15.2644 1.22742 14.8202L15.4098 0.689542C15.8531 0.248027 16.4542 -2.31891e-06 17.081 -2.37351e-06C17.7077 -2.4281e-06 18.3089 0.248027 18.7521 0.689542L32.9345 14.8202C33.3776 15.2619 33.6266 15.8608 33.6266 16.4853C33.6266 17.1098 33.3776 17.7087 32.9345 18.1503Z" fill="#E6E6E6"/>
</svg>
