<svg width="24" height="25" viewBox="0 0 24 25" fill="none" xmlns="http://www.w3.org/2000/svg">
<path fill-rule="evenodd" clip-rule="evenodd" d="M11.7863 0.731445C18.2951 0.731445 23.5726 6.00889 23.5726 12.5177C23.5726 19.0266 18.2951 24.304 11.7863 24.304C5.27744 24.304 0 19.0266 0 12.5177C0 6.00889 5.27744 0.731445 11.7863 0.731445ZM11.7863 2.70169C17.2045 2.70169 21.6023 7.09956 21.6023 12.5177C21.6023 17.9359 17.2045 22.3338 11.7863 22.3338C6.36811 22.3338 1.97025 17.9359 1.97025 12.5177C1.97025 7.09956 6.36811 2.70169 11.7863 2.70169Z" fill="#E6E6E6"/>
<path fill-rule="evenodd" clip-rule="evenodd" d="M12.3023 19.648V13.4206H14.3781L14.7768 10.8406H12.3023V9.1635C12.3023 8.45984 12.6541 7.76791 13.7565 7.76791H14.8824V5.57484C14.8824 5.57484 13.8621 5.39893 12.8887 5.39893C10.8481 5.39893 9.52284 6.63033 9.52284 8.87031V10.8288H7.2594V13.4089H9.52284V19.6363H12.314L12.3023 19.648Z" fill="#E6E6E6"/>
</svg>
