<svg width="25" height="25" viewBox="0 0 25 25" fill="none" xmlns="http://www.w3.org/2000/svg">
<path fill-rule="evenodd" clip-rule="evenodd" d="M15.3078 19.5633H9.77836C7.42082 19.5633 5.52051 17.6629 5.52051 15.3054V9.77592C5.52051 7.41838 7.42082 5.51807 9.77836 5.51807H15.3078C17.6654 5.51807 19.5657 7.41838 19.5657 9.77592V15.3054C19.5657 17.6629 17.6654 19.5633 15.3078 19.5633ZM9.77836 6.97545C8.24953 6.97545 7.02076 8.20423 7.02076 9.73305V15.2625C7.02076 16.7914 8.24953 18.0201 9.77836 18.0201H15.3078C16.8367 18.0201 18.0655 16.7914 18.0655 15.2625V9.73305C18.0655 8.20423 16.8367 6.97545 15.3078 6.97545H9.77836ZM16.2223 7.98991C16.7081 7.98991 17.1224 8.40426 17.1224 8.89006C17.1224 9.37585 16.7081 9.79021 16.2223 9.79021C15.7365 9.79021 15.3221 9.37585 15.3221 8.89006C15.3221 8.40426 15.7365 7.98991 16.2223 7.98991ZM12.5931 9.04722C14.5363 9.04722 16.108 10.6189 16.108 12.5621C16.108 14.5053 14.5363 16.077 12.5931 16.077C10.6499 16.077 9.07824 14.5053 9.07824 12.5621C9.07824 10.6189 10.6499 9.04722 12.5931 9.04722ZM12.5931 14.6482C13.7647 14.6482 14.7077 13.7051 14.7077 12.5335C14.7077 11.3619 13.7647 10.4189 12.5931 10.4189C11.4215 10.4189 10.4785 11.3619 10.4785 12.5335C10.4785 13.7051 11.4215 14.6482 12.5931 14.6482Z" fill="#E6E6E6"/>
<path fill-rule="evenodd" clip-rule="evenodd" d="M12.536 0.731445C19.0513 0.731445 24.3379 6.01804 24.3379 12.5334C24.3379 19.0488 19.0513 24.3354 12.536 24.3354C6.0206 24.3354 0.734009 19.0488 0.734009 12.5334C0.734009 6.01804 6.0206 0.731445 12.536 0.731445ZM12.536 2.7032C17.9654 2.7032 22.3805 7.11822 22.3805 12.5477C22.3805 17.9772 17.9654 22.3922 12.536 22.3922C7.1065 22.3922 2.69148 17.9772 2.69148 12.5477C2.69148 7.11822 7.1065 2.7032 12.536 2.7032Z" fill="#E6E6E6"/>
</svg>
