<svg width="25" height="25" viewBox="0 0 25 25" fill="none" xmlns="http://www.w3.org/2000/svg">
<path fill-rule="evenodd" clip-rule="evenodd" d="M12.2914 0.731445C18.8051 0.731445 24.0835 6.00982 24.0835 12.5236C24.0835 19.0373 18.8051 24.3157 12.2914 24.3157C5.77764 24.3157 0.499268 19.0373 0.499268 12.5236C0.499268 6.00982 5.77764 0.731445 12.2914 0.731445ZM9.37143 10.7267H7.18146V18.0265H9.37143V10.7267ZM8.24837 9.77206C8.97836 9.77206 9.53988 9.15438 9.53988 8.42439C9.53988 7.69441 8.97836 7.07672 8.24837 7.07672C7.51838 7.07672 6.95685 7.69441 6.95685 8.42439C6.95685 9.15438 7.51838 9.77206 8.24837 9.77206ZM12.9091 14.2081C12.9091 13.1974 13.3583 12.5797 14.2567 12.5797C15.0429 12.5797 15.4359 13.1974 15.4359 14.2081V18.0265H17.6259V13.3658C17.6259 11.4005 16.559 10.4459 15.0429 10.4459C13.5267 10.4459 12.9091 11.6813 12.9091 11.6813V10.6705H10.7752V17.9704H12.9091V14.152V14.2081ZM12.2914 2.75295C17.7382 2.75295 22.1181 7.13288 22.1181 12.5797C22.1181 18.0265 17.7382 22.4065 12.2914 22.4065C6.84455 22.4065 2.46462 18.0265 2.46462 12.5797C2.46462 7.13288 6.84455 2.75295 12.2914 2.75295Z" fill="#E6E6E6"/>
</svg>
