<svg width="25" height="25" viewBox="0 0 25 25" fill="none" xmlns="http://www.w3.org/2000/svg">
<path fill-rule="evenodd" clip-rule="evenodd" d="M18.592 14.6786C18.592 16.0734 17.4614 17.2145 16.056 17.2145H8.93426C7.53949 17.2145 6.39832 16.0839 6.39832 14.6786V9.26858C6.39832 9.06782 6.44058 8.87762 6.51455 8.69799L10.72 13.474C11.1638 13.9812 11.8083 14.2771 12.4846 14.2771C13.1608 14.2771 13.8054 13.9918 14.2492 13.474L18.4124 8.75082C18.4335 8.72969 18.4441 8.70856 18.4652 8.67686C18.5392 8.85649 18.5814 9.04668 18.5814 9.24745V14.6575H18.592V14.6786ZM7.84592 7.83154H17.155C17.2818 7.83154 17.4086 7.85268 17.5248 7.88438C17.5036 7.89494 17.4931 7.90551 17.4719 7.92664L13.3088 12.6498C13.0974 12.8929 12.8121 13.0197 12.4952 13.0197C12.1782 13.0197 11.8823 12.8929 11.6815 12.6498L7.47609 7.88438C7.59232 7.86324 7.71912 7.84211 7.83535 7.84211L7.84592 7.83154Z" fill="#E6E6E6"/>
<path fill-rule="evenodd" clip-rule="evenodd" d="M12.4953 0.731445C19.0042 0.731445 24.2874 6.01467 24.2874 12.5236C24.2874 19.0325 19.0042 24.3158 12.4953 24.3158C5.98635 24.3158 0.703125 19.0325 0.703125 12.5236C0.703125 6.01467 5.98635 0.731445 12.4953 0.731445ZM12.4953 2.70737C17.9159 2.70737 22.3115 7.10301 22.3115 12.5236C22.3115 17.9442 17.9159 22.3398 12.4953 22.3398C7.07469 22.3398 2.67905 17.9442 2.67905 12.5236C2.67905 7.10301 7.07469 2.70737 12.4953 2.70737Z" fill="#E6E6E6"/>
</svg>
