<svg width="24" height="25" viewBox="0 0 24 25" fill="none" xmlns="http://www.w3.org/2000/svg">
<path fill-rule="evenodd" clip-rule="evenodd" d="M16.3922 15.1527V15.3181V17.1374C16.3922 17.9643 15.7306 18.6259 14.9037 18.6259H9.57821C8.75127 18.6259 8.08972 17.9643 8.08972 17.1374V15.3181V15.1527V7.87569C8.08972 7.04876 8.75127 6.38721 9.57821 6.38721H14.9037C15.7306 6.38721 16.3922 7.04876 16.3922 7.87569V15.1527ZM12.886 16.0458H11.5629C11.1659 16.0458 10.8351 16.3766 10.8351 16.7735C10.8351 17.1705 11.1659 17.5012 11.5629 17.5012H12.886C13.2829 17.5012 13.6137 17.1705 13.6137 16.7735C13.6137 16.3766 13.2829 16.0458 12.886 16.0458Z" fill="#E6E6E6"/>
<path fill-rule="evenodd" clip-rule="evenodd" d="M12.2244 0.731445C18.7407 0.731445 24 6.02384 24 12.507C24 19.0233 18.7076 24.2826 12.2244 24.2826C5.70817 24.2826 0.448853 18.9902 0.448853 12.507C0.448853 5.99076 5.74124 0.731445 12.2244 0.731445ZM12.2244 2.71609C17.6491 2.71609 22.0484 7.11539 22.0484 12.5401C22.0484 17.9648 17.6491 22.3641 12.2244 22.3641C6.79972 22.3641 2.40042 17.9648 2.40042 12.5401C2.40042 7.11539 6.79972 2.71609 12.2244 2.71609Z" fill="#E6E6E6"/>
</svg>
