<svg width="24" height="25" viewBox="0 0 24 25" fill="none" xmlns="http://www.w3.org/2000/svg">
<path fill-rule="evenodd" clip-rule="evenodd" d="M17.9491 8.50812L15.989 17.7395C15.8309 18.4034 15.4516 18.5615 14.9141 18.2453L11.9424 16.0323L10.4881 17.4233C10.4249 17.5182 10.3301 17.5814 10.2352 17.6446C10.1404 17.7079 10.0139 17.7079 9.88745 17.7079L10.1088 14.6729L15.6412 9.67785C15.8942 9.45655 15.578 9.33009 15.2619 9.55139L8.4332 13.8509L5.49307 12.9341C4.86079 12.7444 4.82917 12.3018 5.61953 11.9857L17.1271 7.5597C17.6646 7.37001 18.1388 7.68615 17.9491 8.50812Z" fill="#E6E6E6"/>
<path fill-rule="evenodd" clip-rule="evenodd" d="M12.037 0.731445C18.5495 0.731445 23.8291 6.01102 23.8291 12.5236C23.8291 19.0361 18.5495 24.3157 12.037 24.3157C5.52445 24.3157 0.244873 19.0361 0.244873 12.5236C0.244873 6.01102 5.52445 0.731445 12.037 0.731445ZM12.037 2.69153C17.4746 2.69153 21.869 7.08591 21.869 12.5236C21.869 17.9612 17.4746 22.3556 12.037 22.3556C6.59933 22.3556 2.20496 17.9612 2.20496 12.5236C2.20496 7.08591 6.59933 2.69153 12.037 2.69153Z" fill="#E6E6E6"/>
</svg>
