<svg width="25" height="25" viewBox="0 0 25 25" fill="none" xmlns="http://www.w3.org/2000/svg">
<path fill-rule="evenodd" clip-rule="evenodd" d="M12.7662 0.731445C19.2824 0.731445 24.5417 6.02384 24.5417 12.507C24.5417 19.0233 19.2493 24.2826 12.7662 24.2826C6.24991 24.2826 0.990601 18.9902 0.990601 12.507C0.990601 5.99076 6.28299 0.731445 12.7662 0.731445ZM12.7662 2.71609C18.1909 2.71609 22.5902 7.11539 22.5902 12.5401C22.5902 17.9648 18.1909 22.3641 12.7662 22.3641C7.34147 22.3641 2.94217 17.9648 2.94217 12.5401C2.94217 7.11539 7.34147 2.71609 12.7662 2.71609Z" fill="#E6E6E6"/>
<path fill-rule="evenodd" clip-rule="evenodd" d="M18 11.2712C17.8944 11.2712 17.7888 11.289 17.6832 11.289C16.5216 11.289 15.448 10.6836 14.8144 9.70411V15.0466C14.8144 17.237 13.0544 19 10.9072 19C8.7424 19 7 17.237 7 15.0466C7 12.874 8.7424 11.111 10.9072 11.111C10.9952 11.111 11.0656 11.111 11.1536 11.111V13.0521C11.0656 13.0521 10.9952 13.0342 10.9072 13.0342C9.7984 13.0342 8.9184 13.9425 8.9184 15.0466C8.9184 16.1685 9.7984 17.0589 10.9072 17.0589C11.9984 17.0589 12.984 16.1863 12.984 15.0822L13.0016 6H14.832C15.008 7.67397 16.3456 8.97397 18 9.09863V11.2712Z" fill="#E6E6E6"/>
</svg>
